<svg xmlns="http://www.w3.org/2000/svg" xmlns:xlink="http://www.w3.org/1999/xlink" width="32.743" height="33.11" viewBox="0 0 32.743 33.11">
  <defs>
    <clipPath id="clip-path">
      <path id="Path_10" data-name="Path 10" d="M12.05,16.55a4.64,4.64,0,0,0,1.3,3.21,4.53,4.53,0,0,0,6.41,0,4.64,4.64,0,0,0,1.3-3.21,4.51,4.51,0,1,0-9,0Zm8-13.06a9.57,9.57,0,0,0-1.76-.34A10.82,10.82,0,0,0,16.55,3,13.54,13.54,0,1,0,30.1,16.55,16.6,16.6,0,0,0,30,14.8a17.05,17.05,0,0,0-.34-1.73l2.89-.8A17.441,17.441,0,0,1,33,14.4a20.378,20.378,0,0,1,.14,2.15A16.56,16.56,0,0,1,16.55,33.11,16.56,16.56,0,0,1,16.55,0a20.061,20.061,0,0,1,2.16.14c.74.12,1.44.26,2.12.43ZM30.19,5.92a3,3,0,1,0-3,3A3,3,0,0,0,30.19,5.92Zm-19,16A7.53,7.53,0,1,1,19.4,23.564,7.47,7.47,0,0,1,11.19,21.92Z" fill="none"/>
    </clipPath>
  </defs>
  <g id="bold-icon" transform="translate(-238 -284)">
    <g id="Group_1" data-name="Group 1" transform="translate(237.603 284)" clip-path="url(#clip-path)">
      <rect id="Rectangle_1" data-name="Rectangle 1" width="0.2" height="33.11" fill="#49d3ff"/>
      <rect id="Rectangle_2" data-name="Rectangle 2" width="0.2" height="33.11" transform="translate(0.11)" fill="#49d2ff"/>
      <rect id="Rectangle_3" data-name="Rectangle 3" width="0.2" height="33.11" transform="translate(0.26)" fill="#48d1ff"/>
      <rect id="Rectangle_4" data-name="Rectangle 4" width="0.17" height="33.11" transform="translate(0.4)" fill="#48d0ff"/>
      <rect id="Rectangle_5" data-name="Rectangle 5" width="0.2" height="33.11" transform="translate(0.51)" fill="#47cfff"/>
      <rect id="Rectangle_6" data-name="Rectangle 6" width="0.2" height="33.11" transform="translate(0.65)" fill="#47cdff"/>
      <rect id="Rectangle_7" data-name="Rectangle 7" width="0.2" height="33.11" transform="translate(0.77)" fill="#46ccff"/>
      <rect id="Rectangle_8" data-name="Rectangle 8" width="0.2" height="33.11" transform="translate(0.91)" fill="#46cbff"/>
      <rect id="Rectangle_9" data-name="Rectangle 9" width="0.2" height="33.11" transform="translate(1.02)" fill="#45caff"/>
      <rect id="Rectangle_10" data-name="Rectangle 10" width="0.2" height="33.11" transform="translate(1.16)" fill="#45c9ff"/>
      <rect id="Rectangle_11" data-name="Rectangle 11" width="0.2" height="33.11" transform="translate(1.28)" fill="#44c8ff"/>
      <rect id="Rectangle_12" data-name="Rectangle 12" width="0.2" height="33.11" transform="translate(1.42)" fill="#44c7ff"/>
      <rect id="Rectangle_13" data-name="Rectangle 13" width="0.17" height="33.11" transform="translate(1.56)" fill="#43c6ff"/>
      <rect id="Rectangle_14" data-name="Rectangle 14" width="0.2" height="33.11" transform="translate(1.67)" fill="#43c5ff"/>
      <rect id="Rectangle_15" data-name="Rectangle 15" width="0.2" height="33.11" transform="translate(1.81)" fill="#42c3ff"/>
      <rect id="Rectangle_16" data-name="Rectangle 16" width="0.2" height="33.11" transform="translate(1.93)" fill="#42c2ff"/>
      <rect id="Rectangle_17" data-name="Rectangle 17" width="0.2" height="33.11" transform="translate(2.07)" fill="#41c1ff"/>
      <rect id="Rectangle_18" data-name="Rectangle 18" width="0.2" height="33.11" transform="translate(2.18)" fill="#41c0ff"/>
      <rect id="Rectangle_19" data-name="Rectangle 19" width="0.2" height="33.11" transform="translate(2.32)" fill="#40bfff"/>
      <rect id="Rectangle_20" data-name="Rectangle 20" width="0.17" height="33.11" transform="translate(2.47)" fill="#40beff"/>
      <rect id="Rectangle_21" data-name="Rectangle 21" width="0.2" height="33.11" transform="translate(2.58)" fill="#3fbdff"/>
      <rect id="Rectangle_22" data-name="Rectangle 22" width="0.2" height="33.11" transform="translate(2.72)" fill="#3fbcff"/>
      <rect id="Rectangle_23" data-name="Rectangle 23" width="0.2" height="33.11" transform="translate(2.83)" fill="#3ebaff"/>
      <rect id="Rectangle_24" data-name="Rectangle 24" width="0.2" height="33.11" transform="translate(2.98)" fill="#3eb9ff"/>
      <rect id="Rectangle_25" data-name="Rectangle 25" width="0.2" height="33.11" transform="translate(3.09)" fill="#3db8ff"/>
      <rect id="Rectangle_26" data-name="Rectangle 26" width="0.2" height="33.11" transform="translate(3.23)" fill="#3db7ff"/>
      <path id="Path_5" data-name="Path 5" d="M3.35,0h.19V33.11H3.37Z" fill="#3cb6ff"/>
      <rect id="Rectangle_27" data-name="Rectangle 27" width="0.2" height="33.11" transform="translate(3.49)" fill="#3cb5ff"/>
      <rect id="Rectangle_28" data-name="Rectangle 28" width="0.17" height="33.11" transform="translate(3.63)" fill="#3bb4ff"/>
      <rect id="Rectangle_29" data-name="Rectangle 29" width="0.2" height="33.11" transform="translate(3.74)" fill="#3bb3ff"/>
      <rect id="Rectangle_30" data-name="Rectangle 30" width="0.2" height="33.11" transform="translate(3.88)" fill="#3ab2ff"/>
      <rect id="Rectangle_31" data-name="Rectangle 31" width="0.2" height="33.11" transform="translate(4)" fill="#3ab0ff"/>
      <rect id="Rectangle_32" data-name="Rectangle 32" width="0.2" height="33.11" transform="translate(4.14)" fill="#39afff"/>
      <rect id="Rectangle_33" data-name="Rectangle 33" width="0.2" height="33.11" transform="translate(4.25)" fill="#39aeff"/>
      <rect id="Rectangle_34" data-name="Rectangle 34" width="0.2" height="33.11" transform="translate(4.39)" fill="#38adff"/>
      <rect id="Rectangle_35" data-name="Rectangle 35" width="0.17" height="33.11" transform="translate(4.54)" fill="#38acff"/>
      <rect id="Rectangle_36" data-name="Rectangle 36" width="0.2" height="33.11" transform="translate(4.65)" fill="#37abff"/>
      <rect id="Rectangle_37" data-name="Rectangle 37" width="0.2" height="33.11" transform="translate(4.79)" fill="#37aaff"/>
      <rect id="Rectangle_38" data-name="Rectangle 38" width="0.2" height="33.11" transform="translate(4.9)" fill="#36a9ff"/>
      <rect id="Rectangle_39" data-name="Rectangle 39" width="0.2" height="33.11" transform="translate(5.05)" fill="#36a8ff"/>
      <rect id="Rectangle_40" data-name="Rectangle 40" width="0.2" height="33.11" transform="translate(5.16)" fill="#35a6ff"/>
      <rect id="Rectangle_41" data-name="Rectangle 41" width="0.2" height="33.11" transform="translate(5.3)" fill="#35a5ff"/>
      <rect id="Rectangle_42" data-name="Rectangle 42" width="0.17" height="33.11" transform="translate(5.44)" fill="#34a4ff"/>
      <rect id="Rectangle_43" data-name="Rectangle 43" width="0.2" height="33.11" transform="translate(5.56)" fill="#34a3ff"/>
      <rect id="Rectangle_44" data-name="Rectangle 44" width="0.17" height="33.11" transform="translate(5.7)" fill="#33a2ff"/>
      <rect id="Rectangle_45" data-name="Rectangle 45" width="0.2" height="33.11" transform="translate(5.81)" fill="#33a1ff"/>
      <rect id="Rectangle_46" data-name="Rectangle 46" width="0.2" height="33.11" transform="translate(5.95)" fill="#32a0ff"/>
      <rect id="Rectangle_47" data-name="Rectangle 47" width="0.2" height="33.11" transform="translate(6.07)" fill="#329fff"/>
      <rect id="Rectangle_48" data-name="Rectangle 48" width="0.2" height="33.11" transform="translate(6.21)" fill="#319dff"/>
      <rect id="Rectangle_49" data-name="Rectangle 49" width="0.2" height="33.11" transform="translate(6.32)" fill="#319cff"/>
      <rect id="Rectangle_50" data-name="Rectangle 50" width="0.2" height="33.11" transform="translate(6.46)" fill="#309bff"/>
      <rect id="Rectangle_51" data-name="Rectangle 51" width="0.17" height="33.11" transform="translate(6.6)" fill="#309aff"/>
      <rect id="Rectangle_52" data-name="Rectangle 52" width="0.2" height="33.11" transform="translate(6.72)" fill="#3099ff"/>
      <rect id="Rectangle_53" data-name="Rectangle 53" width="0.2" height="33.11" transform="translate(6.86)" fill="#2f98ff"/>
      <rect id="Rectangle_54" data-name="Rectangle 54" width="0.2" height="33.11" transform="translate(6.97)" fill="#2f97ff"/>
      <rect id="Rectangle_55" data-name="Rectangle 55" width="0.2" height="33.11" transform="translate(7.11)" fill="#2e96ff"/>
      <rect id="Rectangle_56" data-name="Rectangle 56" width="0.2" height="33.11" transform="translate(7.23)" fill="#2e95ff"/>
      <rect id="Rectangle_57" data-name="Rectangle 57" width="0.2" height="33.11" transform="translate(7.37)" fill="#2d93ff"/>
      <rect id="Rectangle_58" data-name="Rectangle 58" width="0.17" height="33.11" transform="translate(7.51)" fill="#2d92ff"/>
      <rect id="Rectangle_59" data-name="Rectangle 59" width="0.2" height="33.11" transform="translate(7.63)" fill="#2c91ff"/>
      <rect id="Rectangle_60" data-name="Rectangle 60" width="0.17" height="33.11" transform="translate(7.77)" fill="#2c90ff"/>
      <rect id="Rectangle_61" data-name="Rectangle 61" width="0.2" height="33.11" transform="translate(7.88)" fill="#2b8fff"/>
      <rect id="Rectangle_62" data-name="Rectangle 62" width="0.2" height="33.11" transform="translate(8.02)" fill="#2b8eff"/>
      <rect id="Rectangle_63" data-name="Rectangle 63" width="0.2" height="33.11" transform="translate(8.14)" fill="#2a8dff"/>
      <rect id="Rectangle_64" data-name="Rectangle 64" width="0.2" height="33.11" transform="translate(8.28)" fill="#2a8cff"/>
      <rect id="Rectangle_65" data-name="Rectangle 65" width="0.2" height="33.11" transform="translate(8.39)" fill="#298bff"/>
      <rect id="Rectangle_66" data-name="Rectangle 66" width="0.2" height="33.11" transform="translate(8.53)" fill="#2989ff"/>
      <rect id="Rectangle_67" data-name="Rectangle 67" width="0.17" height="33.11" transform="translate(8.67)" fill="#2888ff"/>
      <rect id="Rectangle_68" data-name="Rectangle 68" width="0.2" height="33.11" transform="translate(8.79)" fill="#2887ff"/>
      <rect id="Rectangle_69" data-name="Rectangle 69" width="0.2" height="33.11" transform="translate(8.93)" fill="#2786ff"/>
      <rect id="Rectangle_70" data-name="Rectangle 70" width="0.2" height="33.11" transform="translate(9.04)" fill="#2785ff"/>
      <rect id="Rectangle_71" data-name="Rectangle 71" width="0.2" height="33.11" transform="translate(9.18)" fill="#2684ff"/>
      <rect id="Rectangle_72" data-name="Rectangle 72" width="0.2" height="33.11" transform="translate(9.3)" fill="#2683ff"/>
      <rect id="Rectangle_73" data-name="Rectangle 73" width="0.2" height="33.11" transform="translate(9.44)" fill="#2582ff"/>
      <rect id="Rectangle_74" data-name="Rectangle 74" width="0.17" height="33.11" transform="translate(9.58)" fill="#2580ff"/>
      <rect id="Rectangle_75" data-name="Rectangle 75" width="0.2" height="33.11" transform="translate(9.69)" fill="#247fff"/>
      <path id="Path_6" data-name="Path 6" d="M9.84,0h.17l.03,33.11h-.2Z" fill="#247eff"/>
      <rect id="Rectangle_76" data-name="Rectangle 76" width="0.2" height="33.11" transform="translate(9.95)" fill="#237dff"/>
      <rect id="Rectangle_77" data-name="Rectangle 77" width="0.2" height="33.11" transform="translate(10.09)" fill="#237cff"/>
      <rect id="Rectangle_78" data-name="Rectangle 78" width="0.2" height="33.11" transform="translate(10.2)" fill="#227bff"/>
      <rect id="Rectangle_79" data-name="Rectangle 79" width="0.2" height="33.11" transform="translate(10.35)" fill="#227aff"/>
      <rect id="Rectangle_80" data-name="Rectangle 80" width="0.2" height="33.11" transform="translate(10.46)" fill="#2179ff"/>
      <rect id="Rectangle_81" data-name="Rectangle 81" width="0.2" height="33.11" transform="translate(10.6)" fill="#2278ff"/>
      <rect id="Rectangle_82" data-name="Rectangle 82" width="0.17" height="33.11" transform="translate(10.74)" fill="#2477ff"/>
      <rect id="Rectangle_83" data-name="Rectangle 83" width="0.2" height="33.11" transform="translate(10.86)" fill="#2677ff"/>
      <rect id="Rectangle_84" data-name="Rectangle 84" width="0.2" height="33.11" transform="translate(11)" fill="#2876ff"/>
      <rect id="Rectangle_85" data-name="Rectangle 85" width="0.2" height="33.11" transform="translate(11.11)" fill="#2a76ff"/>
      <rect id="Rectangle_86" data-name="Rectangle 86" width="0.2" height="33.11" transform="translate(11.25)" fill="#2b75ff"/>
      <rect id="Rectangle_87" data-name="Rectangle 87" width="0.2" height="33.11" transform="translate(11.37)" fill="#2d75ff"/>
      <rect id="Rectangle_88" data-name="Rectangle 88" width="0.2" height="33.11" transform="translate(11.51)" fill="#2f74ff"/>
      <rect id="Rectangle_89" data-name="Rectangle 89" width="0.17" height="33.11" transform="translate(11.65)" fill="#3174ff"/>
      <rect id="Rectangle_90" data-name="Rectangle 90" width="0.2" height="33.11" transform="translate(11.76)" fill="#3373ff"/>
      <rect id="Rectangle_91" data-name="Rectangle 91" width="0.2" height="33.11" transform="translate(11.91)" fill="#3572ff"/>
      <rect id="Rectangle_92" data-name="Rectangle 92" width="0.2" height="33.11" transform="translate(12.02)" fill="#3772ff"/>
      <rect id="Rectangle_93" data-name="Rectangle 93" width="0.2" height="33.11" transform="translate(12.16)" fill="#3971ff"/>
      <rect id="Rectangle_94" data-name="Rectangle 94" width="0.2" height="33.11" transform="translate(12.27)" fill="#3b71ff"/>
      <rect id="Rectangle_95" data-name="Rectangle 95" width="0.2" height="33.11" transform="translate(12.42)" fill="#3d70ff"/>
      <rect id="Rectangle_96" data-name="Rectangle 96" width="0.2" height="33.11" transform="translate(12.53)" fill="#3f70ff"/>
      <rect id="Rectangle_97" data-name="Rectangle 97" width="0.2" height="33.11" transform="translate(12.67)" fill="#416fff"/>
      <rect id="Rectangle_98" data-name="Rectangle 98" width="0.17" height="33.11" transform="translate(12.81)" fill="#436fff"/>
      <rect id="Rectangle_99" data-name="Rectangle 99" width="0.2" height="33.11" transform="translate(12.93)" fill="#456efe"/>
      <rect id="Rectangle_100" data-name="Rectangle 100" width="0.2" height="33.11" transform="translate(13.07)" fill="#466efe"/>
      <rect id="Rectangle_101" data-name="Rectangle 101" width="0.2" height="33.11" transform="translate(13.18)" fill="#486dfe"/>
      <rect id="Rectangle_102" data-name="Rectangle 102" width="0.2" height="33.11" transform="translate(13.32)" fill="#4a6dfe"/>
      <rect id="Rectangle_103" data-name="Rectangle 103" width="0.2" height="33.11" transform="translate(13.44)" fill="#4c6cfe"/>
      <rect id="Rectangle_104" data-name="Rectangle 104" width="0.2" height="33.11" transform="translate(13.58)" fill="#4e6cfe"/>
      <rect id="Rectangle_105" data-name="Rectangle 105" width="0.17" height="33.11" transform="translate(13.72)" fill="#506bfe"/>
      <rect id="Rectangle_106" data-name="Rectangle 106" width="0.2" height="33.11" transform="translate(13.83)" fill="#526afe"/>
      <rect id="Rectangle_107" data-name="Rectangle 107" width="0.2" height="33.11" transform="translate(13.97)" fill="#546afe"/>
      <rect id="Rectangle_108" data-name="Rectangle 108" width="0.2" height="33.11" transform="translate(14.09)" fill="#5669fe"/>
      <rect id="Rectangle_109" data-name="Rectangle 109" width="0.2" height="33.11" transform="translate(14.23)" fill="#5869fe"/>
      <rect id="Rectangle_110" data-name="Rectangle 110" width="0.2" height="33.11" transform="translate(14.34)" fill="#5a68fe"/>
      <rect id="Rectangle_111" data-name="Rectangle 111" width="0.2" height="33.11" transform="translate(14.49)" fill="#5c68fe"/>
      <rect id="Rectangle_112" data-name="Rectangle 112" width="0.2" height="33.11" transform="translate(14.6)" fill="#5e67fe"/>
      <rect id="Rectangle_113" data-name="Rectangle 113" width="0.2" height="33.11" transform="translate(14.74)" fill="#6067fe"/>
      <rect id="Rectangle_114" data-name="Rectangle 114" width="0.17" height="33.11" transform="translate(14.88)" fill="#6266fe"/>
      <rect id="Rectangle_115" data-name="Rectangle 115" width="0.2" height="33.11" transform="translate(15)" fill="#6366fe"/>
      <rect id="Rectangle_116" data-name="Rectangle 116" width="0.2" height="33.11" transform="translate(15.14)" fill="#6565fe"/>
      <rect id="Rectangle_117" data-name="Rectangle 117" width="0.2" height="33.11" transform="translate(15.25)" fill="#6765fd"/>
      <rect id="Rectangle_118" data-name="Rectangle 118" width="0.2" height="33.11" transform="translate(15.39)" fill="#6865fc"/>
      <rect id="Rectangle_119" data-name="Rectangle 119" width="0.2" height="33.11" transform="translate(15.51)" fill="#6965fb"/>
      <rect id="Rectangle_120" data-name="Rectangle 120" width="0.2" height="33.11" transform="translate(15.65)" fill="#6a65fa"/>
      <rect id="Rectangle_121" data-name="Rectangle 121" width="0.17" height="33.11" transform="translate(15.79)" fill="#6b65f9"/>
      <rect id="Rectangle_122" data-name="Rectangle 122" width="0.2" height="33.11" transform="translate(15.9)" fill="#6c65f9"/>
      <rect id="Rectangle_123" data-name="Rectangle 123" width="0.2" height="33.11" transform="translate(16.04)" fill="#6d65f8"/>
      <rect id="Rectangle_124" data-name="Rectangle 124" width="0.2" height="33.11" transform="translate(16.16)" fill="#6f65f7"/>
      <rect id="Rectangle_125" data-name="Rectangle 125" width="0.2" height="33.11" transform="translate(16.3)" fill="#7064f6"/>
      <rect id="Rectangle_126" data-name="Rectangle 126" width="0.2" height="33.11" transform="translate(16.41)" fill="#7164f5"/>
      <rect id="Rectangle_127" data-name="Rectangle 127" width="0.2" height="33.11" transform="translate(16.55)" fill="#7264f4"/>
      <path id="Path_7" data-name="Path 7" d="M16.67,0h.2V33.11H16.7Z" fill="#7364f3"/>
      <rect id="Rectangle_128" data-name="Rectangle 128" width="0.2" height="33.11" transform="translate(16.81)" fill="#7464f2"/>
      <rect id="Rectangle_129" data-name="Rectangle 129" width="0.17" height="33.11" transform="translate(16.95)" fill="#7564f1"/>
      <rect id="Rectangle_130" data-name="Rectangle 130" width="0.2" height="33.11" transform="translate(17.06)" fill="#7664f0"/>
      <rect id="Rectangle_131" data-name="Rectangle 131" width="0.2" height="33.11" transform="translate(17.21)" fill="#7764ef"/>
      <rect id="Rectangle_132" data-name="Rectangle 132" width="0.2" height="33.11" transform="translate(17.32)" fill="#7964ee"/>
      <rect id="Rectangle_133" data-name="Rectangle 133" width="0.2" height="33.11" transform="translate(17.46)" fill="#7a64ed"/>
      <rect id="Rectangle_134" data-name="Rectangle 134" width="0.2" height="33.11" transform="translate(17.57)" fill="#7b64ec"/>
      <rect id="Rectangle_135" data-name="Rectangle 135" width="0.2" height="33.11" transform="translate(17.72)" fill="#7c64eb"/>
      <rect id="Rectangle_136" data-name="Rectangle 136" width="0.17" height="33.11" transform="translate(17.86)" fill="#7d64ea"/>
      <rect id="Rectangle_137" data-name="Rectangle 137" width="0.2" height="33.11" transform="translate(17.97)" fill="#7e64e9"/>
      <rect id="Rectangle_138" data-name="Rectangle 138" width="0.2" height="33.11" transform="translate(18.11)" fill="#7f64e8"/>
      <rect id="Rectangle_139" data-name="Rectangle 139" width="0.2" height="33.11" transform="translate(18.23)" fill="#8064e7"/>
      <rect id="Rectangle_140" data-name="Rectangle 140" width="0.2" height="33.11" transform="translate(18.37)" fill="#8164e6"/>
      <rect id="Rectangle_141" data-name="Rectangle 141" width="0.2" height="33.11" transform="translate(18.48)" fill="#8364e5"/>
      <rect id="Rectangle_142" data-name="Rectangle 142" width="0.2" height="33.11" transform="translate(18.62)" fill="#8463e4"/>
      <rect id="Rectangle_143" data-name="Rectangle 143" width="0.17" height="33.11" transform="translate(18.77)" fill="#8563e3"/>
      <rect id="Rectangle_144" data-name="Rectangle 144" width="0.2" height="33.11" transform="translate(18.88)" fill="#8663e2"/>
      <rect id="Rectangle_145" data-name="Rectangle 145" width="0.17" height="33.11" transform="translate(19.02)" fill="#8763e2"/>
      <rect id="Rectangle_146" data-name="Rectangle 146" width="0.2" height="33.11" transform="translate(19.13)" fill="#8863e1"/>
      <rect id="Rectangle_147" data-name="Rectangle 147" width="0.2" height="33.11" transform="translate(19.28)" fill="#8963e0"/>
      <rect id="Rectangle_148" data-name="Rectangle 148" width="0.2" height="33.11" transform="translate(19.39)" fill="#8a63df"/>
      <rect id="Rectangle_149" data-name="Rectangle 149" width="0.2" height="33.11" transform="translate(19.53)" fill="#8b63de"/>
      <rect id="Rectangle_150" data-name="Rectangle 150" width="0.2" height="33.11" transform="translate(19.64)" fill="#8d63dd"/>
      <rect id="Rectangle_151" data-name="Rectangle 151" width="0.2" height="33.11" transform="translate(19.79)" fill="#8e63dc"/>
      <rect id="Rectangle_152" data-name="Rectangle 152" width="0.17" height="33.11" transform="translate(19.93)" fill="#8f63db"/>
      <rect id="Rectangle_153" data-name="Rectangle 153" width="0.2" height="33.11" transform="translate(20.04)" fill="#9063da"/>
      <rect id="Rectangle_154" data-name="Rectangle 154" width="0.2" height="33.11" transform="translate(20.18)" fill="#9163d9"/>
      <rect id="Rectangle_155" data-name="Rectangle 155" width="0.2" height="33.11" transform="translate(20.3)" fill="#9263d8"/>
      <rect id="Rectangle_156" data-name="Rectangle 156" width="0.2" height="33.11" transform="translate(20.44)" fill="#9363d7"/>
      <rect id="Rectangle_157" data-name="Rectangle 157" width="0.2" height="33.11" transform="translate(20.55)" fill="#9463d6"/>
      <rect id="Rectangle_158" data-name="Rectangle 158" width="0.2" height="33.11" transform="translate(20.69)" fill="#9563d5"/>
      <rect id="Rectangle_159" data-name="Rectangle 159" width="0.17" height="33.11" transform="translate(20.83)" fill="#9762d4"/>
      <rect id="Rectangle_160" data-name="Rectangle 160" width="0.2" height="33.11" transform="translate(20.95)" fill="#9862d3"/>
      <path id="Path_8" data-name="Path 8" d="M21.09,0h.17l.03,33.11h-.2Z" fill="#9962d2"/>
      <rect id="Rectangle_161" data-name="Rectangle 161" width="0.2" height="33.11" transform="translate(21.2)" fill="#9a62d1"/>
      <rect id="Rectangle_162" data-name="Rectangle 162" width="0.2" height="33.11" transform="translate(21.34)" fill="#9b62d0"/>
      <rect id="Rectangle_163" data-name="Rectangle 163" width="0.2" height="33.11" transform="translate(21.46)" fill="#9c62cf"/>
      <rect id="Rectangle_164" data-name="Rectangle 164" width="0.2" height="33.11" transform="translate(21.6)" fill="#9d62ce"/>
      <rect id="Rectangle_165" data-name="Rectangle 165" width="0.2" height="33.11" transform="translate(21.71)" fill="#9e62cd"/>
      <rect id="Rectangle_166" data-name="Rectangle 166" width="0.2" height="33.11" transform="translate(21.86)" fill="#9f62cc"/>
      <rect id="Rectangle_167" data-name="Rectangle 167" width="0.17" height="33.11" transform="translate(22)" fill="#a162cb"/>
      <rect id="Rectangle_168" data-name="Rectangle 168" width="0.2" height="33.11" transform="translate(22.11)" fill="#a262cb"/>
      <rect id="Rectangle_169" data-name="Rectangle 169" width="0.2" height="33.11" transform="translate(22.25)" fill="#a362ca"/>
      <rect id="Rectangle_170" data-name="Rectangle 170" width="0.2" height="33.11" transform="translate(22.37)" fill="#a462c9"/>
      <rect id="Rectangle_171" data-name="Rectangle 171" width="0.2" height="33.11" transform="translate(22.51)" fill="#a562c8"/>
      <rect id="Rectangle_172" data-name="Rectangle 172" width="0.2" height="33.11" transform="translate(22.62)" fill="#a662c7"/>
      <rect id="Rectangle_173" data-name="Rectangle 173" width="0.2" height="33.11" transform="translate(22.76)" fill="#a762c6"/>
      <rect id="Rectangle_174" data-name="Rectangle 174" width="0.17" height="33.11" transform="translate(22.9)" fill="#a862c5"/>
      <rect id="Rectangle_175" data-name="Rectangle 175" width="0.2" height="33.11" transform="translate(23.02)" fill="#a961c4"/>
      <rect id="Rectangle_176" data-name="Rectangle 176" width="0.2" height="33.11" transform="translate(23.16)" fill="#ab61c3"/>
      <rect id="Rectangle_177" data-name="Rectangle 177" width="0.2" height="33.11" transform="translate(23.27)" fill="#ac61c2"/>
      <rect id="Rectangle_178" data-name="Rectangle 178" width="0.2" height="33.11" transform="translate(23.41)" fill="#ad61c1"/>
      <rect id="Rectangle_179" data-name="Rectangle 179" width="0.2" height="33.11" transform="translate(23.53)" fill="#ae61c0"/>
      <rect id="Rectangle_180" data-name="Rectangle 180" width="0.2" height="33.11" transform="translate(23.67)" fill="#af61bf"/>
      <rect id="Rectangle_181" data-name="Rectangle 181" width="0.2" height="33.11" transform="translate(23.78)" fill="#b061be"/>
      <rect id="Rectangle_182" data-name="Rectangle 182" width="0.2" height="33.11" transform="translate(23.92)" fill="#b161bd"/>
      <rect id="Rectangle_183" data-name="Rectangle 183" width="0.17" height="33.11" transform="translate(24.07)" fill="#b261bc"/>
      <rect id="Rectangle_184" data-name="Rectangle 184" width="0.2" height="33.11" transform="translate(24.18)" fill="#b361bb"/>
      <rect id="Rectangle_185" data-name="Rectangle 185" width="0.2" height="33.11" transform="translate(24.32)" fill="#b561ba"/>
      <rect id="Rectangle_186" data-name="Rectangle 186" width="0.2" height="33.11" transform="translate(24.43)" fill="#b661b9"/>
      <rect id="Rectangle_187" data-name="Rectangle 187" width="0.2" height="33.11" transform="translate(24.58)" fill="#b761b8"/>
      <rect id="Rectangle_188" data-name="Rectangle 188" width="0.2" height="33.11" transform="translate(24.69)" fill="#b861b7"/>
      <rect id="Rectangle_189" data-name="Rectangle 189" width="0.2" height="33.11" transform="translate(24.83)" fill="#b961b6"/>
      <rect id="Rectangle_190" data-name="Rectangle 190" width="0.17" height="33.11" transform="translate(24.97)" fill="#ba61b5"/>
      <rect id="Rectangle_191" data-name="Rectangle 191" width="0.2" height="33.11" transform="translate(25.09)" fill="#bb61b4"/>
      <rect id="Rectangle_192" data-name="Rectangle 192" width="0.2" height="33.11" transform="translate(25.23)" fill="#bc60b4"/>
      <rect id="Rectangle_193" data-name="Rectangle 193" width="0.2" height="33.11" transform="translate(25.34)" fill="#bd60b3"/>
      <rect id="Rectangle_194" data-name="Rectangle 194" width="0.2" height="33.11" transform="translate(25.48)" fill="#bf60b2"/>
      <rect id="Rectangle_195" data-name="Rectangle 195" width="0.2" height="33.11" transform="translate(25.6)" fill="#c060b1"/>
      <rect id="Rectangle_196" data-name="Rectangle 196" width="0.2" height="33.11" transform="translate(25.74)" fill="#c160b0"/>
      <rect id="Rectangle_197" data-name="Rectangle 197" width="0.2" height="33.11" transform="translate(25.85)" fill="#c260af"/>
      <rect id="Rectangle_198" data-name="Rectangle 198" width="0.2" height="33.11" transform="translate(25.99)" fill="#c360ae"/>
      <rect id="Rectangle_199" data-name="Rectangle 199" width="0.17" height="33.11" transform="translate(26.14)" fill="#c460ad"/>
      <rect id="Rectangle_200" data-name="Rectangle 200" width="0.2" height="33.11" transform="translate(26.25)" fill="#c560ac"/>
      <rect id="Rectangle_201" data-name="Rectangle 201" width="0.2" height="33.11" transform="translate(26.39)" fill="#c660ab"/>
      <rect id="Rectangle_202" data-name="Rectangle 202" width="0.2" height="33.11" transform="translate(26.5)" fill="#c760aa"/>
      <rect id="Rectangle_203" data-name="Rectangle 203" width="0.2" height="33.11" transform="translate(26.65)" fill="#c960a9"/>
      <rect id="Rectangle_204" data-name="Rectangle 204" width="0.2" height="33.11" transform="translate(26.76)" fill="#ca60a8"/>
      <rect id="Rectangle_205" data-name="Rectangle 205" width="0.2" height="33.11" transform="translate(26.9)" fill="#cb60a7"/>
      <rect id="Rectangle_206" data-name="Rectangle 206" width="0.17" height="33.11" transform="translate(27.04)" fill="#cc60a6"/>
      <rect id="Rectangle_207" data-name="Rectangle 207" width="0.2" height="33.11" transform="translate(27.16)" fill="#cd60a5"/>
      <rect id="Rectangle_208" data-name="Rectangle 208" width="0.2" height="33.11" transform="translate(27.3)" fill="#ce60a4"/>
      <rect id="Rectangle_209" data-name="Rectangle 209" width="0.2" height="33.11" transform="translate(27.41)" fill="#cf5fa3"/>
      <rect id="Rectangle_210" data-name="Rectangle 210" width="0.2" height="33.11" transform="translate(27.55)" fill="#d05fa2"/>
      <rect id="Rectangle_211" data-name="Rectangle 211" width="0.2" height="33.11" transform="translate(27.67)" fill="#d15fa1"/>
      <rect id="Rectangle_212" data-name="Rectangle 212" width="0.2" height="33.11" transform="translate(27.81)" fill="#d35fa0"/>
      <path id="Path_9" data-name="Path 9" d="M27.92,0h.2V33.11h-.17Z" fill="#d45f9f"/>
      <rect id="Rectangle_213" data-name="Rectangle 213" width="0.2" height="33.11" transform="translate(28.06)" fill="#d55f9e"/>
      <rect id="Rectangle_214" data-name="Rectangle 214" width="0.17" height="33.11" transform="translate(28.2)" fill="#d65f9d"/>
      <rect id="Rectangle_215" data-name="Rectangle 215" width="0.2" height="33.11" transform="translate(28.32)" fill="#d75f9d"/>
      <rect id="Rectangle_216" data-name="Rectangle 216" width="0.2" height="33.11" transform="translate(28.46)" fill="#d85f9c"/>
      <rect id="Rectangle_217" data-name="Rectangle 217" width="0.2" height="33.11" transform="translate(28.57)" fill="#d95f9b"/>
      <rect id="Rectangle_218" data-name="Rectangle 218" width="0.2" height="33.11" transform="translate(28.71)" fill="#da5f9a"/>
      <rect id="Rectangle_219" data-name="Rectangle 219" width="0.2" height="33.11" transform="translate(28.83)" fill="#db5f99"/>
      <rect id="Rectangle_220" data-name="Rectangle 220" width="0.2" height="33.11" transform="translate(28.97)" fill="#dd5f98"/>
      <rect id="Rectangle_221" data-name="Rectangle 221" width="0.17" height="33.11" transform="translate(29.11)" fill="#de5f97"/>
      <rect id="Rectangle_222" data-name="Rectangle 222" width="0.2" height="33.11" transform="translate(29.23)" fill="#df5f96"/>
      <rect id="Rectangle_223" data-name="Rectangle 223" width="0.2" height="33.11" transform="translate(29.37)" fill="#e05f95"/>
      <rect id="Rectangle_224" data-name="Rectangle 224" width="0.2" height="33.11" transform="translate(29.48)" fill="#e15f94"/>
      <rect id="Rectangle_225" data-name="Rectangle 225" width="0.2" height="33.11" transform="translate(29.62)" fill="#e25f93"/>
      <rect id="Rectangle_226" data-name="Rectangle 226" width="0.2" height="33.11" transform="translate(29.74)" fill="#e35e92"/>
      <rect id="Rectangle_227" data-name="Rectangle 227" width="0.2" height="33.11" transform="translate(29.88)" fill="#e45e91"/>
      <rect id="Rectangle_228" data-name="Rectangle 228" width="0.17" height="33.11" transform="translate(30.02)" fill="#e55e90"/>
      <rect id="Rectangle_229" data-name="Rectangle 229" width="0.2" height="33.11" transform="translate(30.13)" fill="#e75e8f"/>
      <rect id="Rectangle_230" data-name="Rectangle 230" width="0.17" height="33.11" transform="translate(30.27)" fill="#e85e8e"/>
      <rect id="Rectangle_231" data-name="Rectangle 231" width="0.2" height="33.11" transform="translate(30.39)" fill="#e95e8d"/>
      <rect id="Rectangle_232" data-name="Rectangle 232" width="0.2" height="33.11" transform="translate(30.53)" fill="#ea5e8c"/>
      <rect id="Rectangle_233" data-name="Rectangle 233" width="0.2" height="33.11" transform="translate(30.64)" fill="#eb5e8b"/>
      <rect id="Rectangle_234" data-name="Rectangle 234" width="0.2" height="33.11" transform="translate(30.78)" fill="#ec5e8a"/>
      <rect id="Rectangle_235" data-name="Rectangle 235" width="0.2" height="33.11" transform="translate(30.9)" fill="#ed5e89"/>
      <rect id="Rectangle_236" data-name="Rectangle 236" width="0.2" height="33.11" transform="translate(31.04)" fill="#ee5e88"/>
      <rect id="Rectangle_237" data-name="Rectangle 237" width="0.17" height="33.11" transform="translate(31.18)" fill="#ef5e87"/>
      <rect id="Rectangle_238" data-name="Rectangle 238" width="0.2" height="33.11" transform="translate(31.29)" fill="#f15e86"/>
      <rect id="Rectangle_239" data-name="Rectangle 239" width="0.2" height="33.11" transform="translate(31.44)" fill="#f25e86"/>
      <rect id="Rectangle_240" data-name="Rectangle 240" width="0.2" height="33.11" transform="translate(31.55)" fill="#f35e85"/>
      <rect id="Rectangle_241" data-name="Rectangle 241" width="0.2" height="33.11" transform="translate(31.69)" fill="#f45e84"/>
      <rect id="Rectangle_242" data-name="Rectangle 242" width="0.2" height="33.11" transform="translate(31.8)" fill="#f55e83"/>
      <rect id="Rectangle_243" data-name="Rectangle 243" width="0.2" height="33.11" transform="translate(31.95)" fill="#f65d82"/>
      <rect id="Rectangle_244" data-name="Rectangle 244" width="0.17" height="33.11" transform="translate(32.09)" fill="#f75d81"/>
      <rect id="Rectangle_245" data-name="Rectangle 245" width="0.2" height="33.11" transform="translate(32.2)" fill="#f85d80"/>
      <rect id="Rectangle_246" data-name="Rectangle 246" width="0.17" height="33.11" transform="translate(32.34)" fill="#f95d7f"/>
      <rect id="Rectangle_247" data-name="Rectangle 247" width="0.2" height="33.11" transform="translate(32.46)" fill="#fb5d7e"/>
      <rect id="Rectangle_248" data-name="Rectangle 248" width="0.2" height="33.11" transform="translate(32.6)" fill="#fc5d7d"/>
      <rect id="Rectangle_249" data-name="Rectangle 249" width="0.2" height="33.11" transform="translate(32.71)" fill="#fd5d7c"/>
      <rect id="Rectangle_250" data-name="Rectangle 250" width="0.2" height="33.11" transform="translate(32.85)" fill="#fe5d7b"/>
      <rect id="Rectangle_251" data-name="Rectangle 251" width="0.14" height="33.11" transform="translate(32.97)" fill="#ff5d7a"/>
    </g>
  </g>
</svg>
